<?xml version="1.0" encoding="UTF-8"?>
<svg width="1372px" height="566px" viewBox="0 0 1372 566" version="1.1" xmlns="http://www.w3.org/2000/svg" xmlns:xlink="http://www.w3.org/1999/xlink">
    <!-- Generator: Sketch 48.2 (47327) - http://www.bohemiancoding.com/sketch -->
    <title>Group 2</title>
    <desc>Created with Sketch.</desc>
    <defs></defs>
    <g id="Desktop-HD-Copy" stroke="none" stroke-width="1" fill="none" fill-rule="evenodd" transform="translate(-404.000000, -249.000000)">
        <g id="Group-2" transform="translate(404.000000, 249.000000)">
            <text id="Artists-submit-an-ar" font-family="Nunito-Light, Nunito" font-size="30" font-weight="300" letter-spacing="-0.233333364" fill="#000000">
                <tspan x="40.5216671" y="230">Artists submit an artwork </tspan>
                <tspan x="30.8700004" y="271">and select the non-profit(s) </tspan>
                <tspan x="120.998334" y="312">who benefits</tspan>
            </text>
            <text id="Art-Lovers,-business" font-family="Nunito-Light, Nunito" font-size="30" font-weight="300" letter-spacing="-0.233333364" fill="#000000">
                <tspan x="514.918334" y="235">Art Lovers, businesses and </tspan>
                <tspan x="523.723334" y="276">donors buy their favourite </tspan>
                <tspan x="617.19" y="317">piece of art</tspan>
            </text>
            <text id="A4H-transfers-the-mo" font-family="Nunito-Light, Nunito" font-size="30" font-weight="300" letter-spacing="-0.233333364" fill="#000000">
                <tspan x="987.218334" y="232">A4H transfers the money to </tspan>
                <tspan x="996.116667" y="273">the non-profit and sends a </tspan>
                <tspan x="1022.11167" y="314">tax receipt to the artist</tspan>
            </text>
            <g id="noun_710579" transform="translate(1112.000000, 396.000000)" fill="#0091AD" fill-rule="nonzero">
                <path d="M69.291385,85.6232085 C70.8792013,85.6055612 71.8871432,84.8779512 72.9388493,83.8503378 L92.9116905,64.0256792 L92.9157934,64.0297516 C95.2243497,61.7478254 98.9607097,61.7478254 101.267898,64.0433264 C103.576455,66.3333976 103.576455,70.0406793 101.273369,72.332108 L101.281575,72.3375379 L73.3956371,100.011154 C72.3261519,101.061845 70.8600545,101.713436 69.2380475,101.713436 C68.9740953,101.713436 68.7388633,101.728368 68.4926902,101.739228 C68.4926902,101.739228 30.5642593,101.763663 29.8900186,101.741943 C29.0913238,101.713436 28.2816879,102.008009 27.66352,102.598514 L16.1713408,114 L0.0169173492,114 C-0.0241114947,113.710856 0.0223878617,94.8785168 0.0223878617,94.8785168 C-0.006332329,93.3798573 0.558498089,91.8635506 1.69636469,90.7015465 L20.2961073,72.3809773 C20.3220922,72.3524702 20.3453419,72.3307505 20.3726944,72.3049583 L20.7433217,71.9397958 L20.7761447,71.9397958 C24.3100958,68.6628357 29.3210853,67.6420097 34.4797786,67.6420097 L62.1961303,67.6392947 C65.4565558,67.6487971 68.0960781,70.2687362 68.0960781,73.5090443 C68.0960781,76.7466375 65.4524529,79.3679341 62.1961303,79.376079 L62.1961303,79.3855814 L40.5137539,79.3869389 C38.8083216,79.3869389 37.4201791,80.76614 37.4201791,82.4629918 C37.4201791,84.1571286 38.806954,85.5322572 40.5110187,85.5322572 L69.291385,85.6232085 Z" id="Shape"></path>
                <path d="M54.4841638,15.2 C43.3521029,15.2 34.3333333,24.387488 34.3333333,35.718632 C34.3333333,47.051144 43.3521029,56.24 54.4841638,56.24 C65.6121942,56.24 74.6376812,47.051144 74.6376812,35.718632 C74.6376812,24.387488 65.6121942,15.2 54.4841638,15.2 Z M61.3399333,39.33152 C61.3399333,42.492968 59.2991899,44.46152 56.2387464,44.958104 L56.2387464,47.432816 L52.1747246,47.432816 L52.1760681,44.815832 C49.7510899,44.410904 47.7909551,42.856856 47.7909551,42.856856 L50.0587464,39.806216 C50.0587464,39.806216 52.1451681,41.480648 54.7219594,41.480648 C56.3623464,41.480648 57.3524899,40.8158 57.3524899,39.726872 L57.3524899,39.67352 C57.3524899,38.639312 56.726429,38.109896 53.6807638,37.312352 C50.0076942,36.358856 47.6351116,35.324648 47.6351116,31.637888 L47.6351116,31.585904 C47.6351116,28.803392 49.4501507,26.803376 52.1774116,26.187776 L52.1774116,24.011288 L56.2400899,24.007184 L56.2400899,26.221976 C58.3789072,26.43812 59.8003072,27.631016 59.8003072,27.631016 L57.7931507,30.84308 C57.7931507,30.84308 56.1970986,29.594096 53.9628942,29.594096 C52.4259551,29.594096 51.6185246,30.308192 51.6185246,31.213808 L51.6185246,31.26716 C51.6185246,32.488784 52.400429,32.885504 55.552229,33.706304 C59.2521681,34.691264 61.3385899,36.038744 61.3385899,39.2768 L61.3385899,39.33152 L61.3399333,39.33152 Z" id="Shape"></path>
                <rect id="Rectangle-path" transform="translate(32.840580, 58.520000) rotate(-135.008103) translate(-32.840580, -58.520000) " x="31.3478261" y="54.72" width="2.98550725" height="7.6"></rect>
                <rect id="Rectangle-path" transform="translate(77.623188, 12.920000) rotate(-135.000000) translate(-77.623188, -12.920000) " x="76.1304348" y="9.12" width="2.98550725" height="7.6"></rect>
                <rect id="Rectangle-path" transform="translate(76.876812, 59.280000) rotate(-135.000000) translate(-76.876812, -59.280000) " x="73.1449275" y="57.76" width="7.46376812" height="3.04"></rect>
                <rect id="Rectangle-path" transform="translate(33.586957, 13.680000) rotate(-135.000000) translate(-33.586957, -13.680000) " x="29.8550725" y="12.16" width="7.46376812" height="3.04"></rect>
                <rect id="Rectangle-path" x="53.7391304" y="0" width="2.98550725" height="7.6"></rect>
                <rect id="Rectangle-path" transform="translate(24.630435, 36.480000) rotate(-179.919786) translate(-24.630435, -36.480000) " x="20.8985507" y="34.96" width="7.46376812" height="3.04"></rect>
                <rect id="Rectangle-path" transform="translate(85.833333, 36.480000) rotate(-179.902597) translate(-85.833333, -36.480000) " x="82.1014493" y="34.96" width="7.46376812" height="3.04"></rect>
            </g>
            <g id="noun_783075" transform="translate(656.000000, 389.000000)" fill="#0091AD" fill-rule="nonzero">
                <path d="M74.4108584,73 L1.5891416,73 C0.724871607,73 0,72.2766965 0,71.350868 L0,19.649132 C0,18.7522357 0.69699193,18 1.5891416,18 L74.4108584,18 C75.2751284,18 76,18.7233035 76,19.649132 L76,71.350868 C76,72.2477643 75.2751284,73 74.4108584,73 Z M4.37710932,70.1067859 L71.6228907,70.1067859 C72.4871607,70.1067859 73.2120323,69.3834824 73.2120323,68.4576539 L73.2120323,22.5423461 C73.2120323,21.6454498 72.5150404,20.8932141 71.6228907,20.8932141 L4.37710932,20.8932141 C3.51283933,20.8932141 2.78796772,21.6165176 2.78796772,22.5423461 L2.78796772,68.4576539 C2.78796772,69.3545502 3.51283933,70.1067859 4.37710932,70.1067859 Z" id="Shape"></path>
                <g id="Group" transform="translate(10.000000, 0.000000)">
                    <path d="M30.6527543,19.7770302 L38.1549809,19.7770302 C39.0227758,19.7770302 39.7506037,19.0635731 39.7506037,18.150348 L39.7506037,15.6675174 C39.7506037,14.7828306 39.0507692,14.0408353 38.1549809,14.0408353 L32.2203837,14.0408353 C31.3525889,14.0408353 30.6247609,13.3273782 30.6247609,12.4141531 L30.6247609,1.6837587 C30.6247609,0.799071926 29.9249263,0.0570765661 29.0291381,0.0570765661 L26.5937138,0.0570765661 C25.7259189,0.0570765661 24.9980909,0.770533643 24.9980909,1.6837587 L24.9980909,12.4426914 C24.9980909,13.3273782 24.2982564,14.0693735 23.4024681,14.0693735 L18.1117187,14.0693735 C17.2439239,14.0693735 16.5160959,14.7828306 16.5160959,15.6960557 L16.5160959,18.1788863 C16.5160959,19.0635731 17.2159305,19.8055684 18.1117187,19.8055684 L24.9980909,19.8055684 L30.6527543,19.8055684 L30.6527543,19.7770302 Z" id="Shape"></path>
                    <path d="M56.2666997,74.6561485 L56.2666997,72.7440835 C56.2666997,71.8593968 55.5668651,71.1174014 54.6710768,71.1174014 L1.65160959,71.1174014 C0.783814722,71.1174014 0.0559867658,71.8308585 0.0559867658,72.7440835 L0.0559867658,74.6561485 C0.0559867658,75.5408353 0.755821339,76.2828306 1.65160959,76.2828306 L3.38719933,76.2828306 C4.33897435,76.2828306 5.06680231,77.1104408 4.95482878,78.0807425 L0.223947063,120.83109 C0.111973532,121.715777 0.755821339,122.514849 1.62361621,122.629002 L4.03104714,122.914385 C4.89884201,123.028538 5.68265673,122.372158 5.79463026,121.487471 L8.73393547,94.8612529 C8.81791562,94.0336427 9.48975681,93.4343387 10.3015649,93.4343387 L23.4304615,93.4343387 C24.2982564,93.4343387 25.0260843,94.1477958 25.0260843,95.0610209 L25.0260843,121.17355 C25.0260843,122.058237 25.7259189,122.800232 26.6217071,122.800232 L29.0571315,122.800232 C29.9249263,122.800232 30.6527543,122.086775 30.6527543,121.17355 L30.6527543,95.0610209 C30.6527543,94.1763341 31.3525889,93.4343387 32.2483771,93.4343387 L46.0211215,93.4343387 C46.8329296,93.4343387 47.5047708,94.062181 47.588751,94.8612529 L50.5280562,121.487471 C50.6400297,122.372158 51.4238444,123 52.2916393,122.914385 L54.6990702,122.629002 C55.5668651,122.514849 56.1827195,121.715777 56.0987394,120.83109 L51.3678576,78.0807425 C51.2558841,77.1104408 52.0117055,76.2828306 52.9354871,76.2828306 L54.6710768,76.2828306 C55.5668651,76.2828306 56.2666997,75.5408353 56.2666997,74.6561485 Z M23.4584549,87.6981439 L11.3093267,87.6981439 C10.3575517,87.6981439 9.62972372,86.8705336 9.74169725,85.900232 L10.6374855,77.7382831 C10.7214657,76.9106729 11.3933068,76.3113689 12.2051149,76.3113689 L23.4584549,76.3113689 C24.3262498,76.3113689 25.0540777,77.024826 25.0540777,77.938051 L25.0540777,86.1 C25.0540777,86.9561485 24.3542431,87.6981439 23.4584549,87.6981439 Z M30.6527543,86.0714617 L30.6527543,77.9095128 C30.6527543,77.024826 31.3525889,76.2828306 32.2483771,76.2828306 L44.1455649,76.2828306 C44.957373,76.2828306 45.6292141,76.9106729 45.7131943,77.7097448 L46.6089825,85.8716937 C46.7209561,86.8419954 45.9651347,87.6696056 45.0413531,87.6696056 L32.2483771,87.6696056 C31.3525889,87.6981439 30.6527543,86.9561485 30.6527543,86.0714617 Z" id="Shape"></path>
                </g>
                <path d="M37.9991307,33 C37.4512203,33 37,32.5856354 37,32.1436464 L37,28.8563536 C37,28.3867403 37.4834504,28 37.9991307,28 C38.5470411,28 38.9982615,28.4143646 38.9982615,28.8563536 L38.9982615,32.1436464 C39.0304915,32.6685083 38.6115012,33 37.9991307,33 Z" id="Shape"></path>
                <path d="M29.3163676,38 C29.1422092,38 28.9027414,37.8693347 28.8156622,37.6733367 L27.1393873,34.6680341 C26.9216892,34.2433718 26.9652289,33.5900452 27.2264665,33.2307155 C27.5094739,32.9040522 27.94487,32.9040522 28.1843378,33.3613809 L29.8606127,36.3666834 C30.0783108,36.7913457 30.0347711,37.4446724 29.7735335,37.804002 C29.6211449,37.9346673 29.4905261,38 29.3163676,38 Z" id="Shape"></path>
                <path d="M25.143033,44 C25.0873369,44 25.0316409,44 24.9759449,44 L21.717727,43.4925882 C21.2443107,43.4442632 20.9101345,43.0335013 21.0215266,42.6227393 C21.0772226,42.2119774 21.5506389,41.9220278 22.0240551,42.0186776 L25.282273,42.5260895 C25.7556893,42.5744144 26.0898655,42.9851763 25.9784734,43.3959383 C25.9506254,43.6858879 25.5607532,44 25.143033,44 Z" id="Shape"></path>
                <path d="M23.9556445,55 C23.6481393,55 23.3098836,54.8525525 23.1253805,54.5822321 C22.8793763,54.2136133 23.0023784,53.7712708 23.4328857,53.5500995 L26.5694388,52.100199 C27.0306967,51.9036024 27.5842061,52.0019007 27.8609607,52.3459449 C28.1377154,52.6899891 27.9839628,53.1569062 27.5534555,53.3780774 L24.4169023,54.8279779 C24.2631497,54.9508508 24.0786466,55 23.9556445,55 Z" id="Shape"></path>
                <path d="M33.4857091,61.8253197 C33.2570542,61.9976722 32.8854899,62.055123 32.5996713,61.9402213 C32.1137796,61.7678688 31.8851247,61.2795367 32.0566158,60.7912046 L33.2570542,57.6026832 C33.4285453,57.114351 33.914437,56.8845477 34.4003287,57.0569002 C34.8862204,57.2292527 35.1148753,57.7175848 34.9433842,58.2059169 L33.7429458,61.3944384 C33.714364,61.5667909 33.6000365,61.7678688 33.4857091,61.8253197 Z" id="Shape"></path>
                <path d="M45,61.2731803 C44.9417496,61.5638656 44.7087482,61.8254823 44.3883713,61.9417565 C43.8932432,62.1161676 43.4272404,61.8836194 43.2233642,61.4475915 L42.058357,58.2209847 C41.883606,57.7268197 42.1166074,57.2617232 42.5534851,57.0582435 C43.0486131,56.8838324 43.5146159,57.1163806 43.7184922,57.5524085 L44.8834993,60.7790153 C44.9417496,60.982495 45,61.1569062 45,61.2731803 Z" id="Shape"></path>
                <path d="M53.9082878,53.8220205 C54.0305707,54.020187 54.0305707,54.3422075 53.9082878,54.5899156 C53.663722,54.9614777 53.0828782,55.1101025 52.6243172,54.9119361 L49.506103,53.4504584 C49.0475421,53.2522919 48.8641177,52.7816466 49.1086835,52.4100844 C49.3532493,52.0385223 49.9340932,51.8898975 50.3926541,52.0880639 L53.5108684,53.5495416 C53.663722,53.623854 53.8471464,53.7229373 53.9082878,53.8220205 Z" id="Shape"></path>
                <path d="M54.460719,42.0358196 C54.7408217,42.1313386 54.9368937,42.3462564 54.9929142,42.6328134 C55.0489347,43.0387691 54.768832,43.4208451 54.2926574,43.4924844 L51.0154556,43.9939591 C50.539281,44.0417186 50.0911166,43.8029211 50.0070858,43.3969654 C49.9510653,42.9910096 50.231168,42.6089336 50.7073426,42.5372944 L53.9845444,42.0358196 C54.1806163,41.9880601 54.3486779,41.9880601 54.460719,42.0358196 Z" id="Shape"></path>
                <path d="M45.6922762,38 C45.5630404,38 45.3691867,37.9355421 45.2399508,37.7421686 C44.9599399,37.4198793 44.9168613,36.7430719 45.1537936,36.3240959 L46.8123199,33.3590348 C47.0277129,32.9400587 47.4800382,32.8756009 47.7600492,33.2301191 C48.0400601,33.5524083 48.0831387,34.2292157 47.8462064,34.6481918 L46.1876801,37.6132529 C46.0584443,37.8710843 45.8645906,38 45.6922762,38 Z" id="Shape"></path>
                <path d="M36.5,57 C31.273639,57 27,52.5014327 27,47 C27,41.4985673 31.273639,37 36.5,37 C41.726361,37 46,41.4985673 46,47 C46,52.5014327 41.7535817,57 36.5,57 Z M36.5,38.7765043 C32.1719198,38.7765043 28.7148997,42.5014327 28.7148997,46.9713467 C28.7148997,51.5272206 32.2535817,55.1661891 36.5,55.1661891 C40.773639,55.1661891 44.2851003,51.4985673 44.2851003,46.9713467 C44.2851003,42.4441261 40.8280802,38.7765043 36.5,38.7765043 Z" id="Shape"></path>
            </g>
            <g id="noun_691414" transform="translate(152.000000, 408.000000)" fill="#0091AD" fill-rule="nonzero">
                <polygon id="Shape" points="0 56.3809524 0 96 92 96 92 56.3809524 83.0967742 64.7218045 83.0967742 86.8571429 8.90322581 86.8571429 8.90322581 64.7218045"></polygon>
                <polygon id="Shape" points="46 0 20.7741935 25.077551 34.9006452 25.077551 34.9006452 73.1428571 57.0993548 73.1428571 57.0993548 25.077551 71.2258065 25.077551"></polygon>
            </g>
            <rect id="Rectangle" stroke="#0091AD" x="0.5" y="0.5" width="407" height="564"></rect>
            <rect id="Rectangle" stroke="#0091AD" x="487.5" y="0.5" width="407" height="564"></rect>
            <rect id="Rectangle" stroke="#0091AD" x="964.5" y="1.5" width="407" height="564"></rect>
            <g id="noun_408852" transform="translate(913.000000, 252.000000)" fill="#0091AD" fill-rule="nonzero">
                <path d="M11.078394,13 L0,26 L36,13 L0,0 L11.078394,13 Z M3.62530855,23.4861753 L12.5609124,13 L3.62530855,2.51382468 L32.6648961,13 L3.62530855,23.4861753 Z" id="Shape"></path>
            </g>
            <g id="noun_408852" transform="translate(430.000000, 252.000000)" fill="#0091AD" fill-rule="nonzero">
                <path d="M11.078394,13 L0,26 L36,13 L0,0 L11.078394,13 Z M3.62530855,23.4861753 L12.5609124,13 L3.62530855,2.51382468 L32.6648961,13 L3.62530855,23.4861753 Z" id="Shape"></path>
            </g>
            <circle id="Oval-3" fill="#FFCC01" cx="212.5" cy="91.5" r="34.5"></circle>
            <text id="1" font-family="Raleway-Bold, Raleway" font-size="36" font-weight="bold" letter-spacing="-0.186666697" fill="#FFFFFF">
                <tspan x="203" y="101">1</tspan>
            </text>
            <circle id="Oval-3" fill="#FFCC01" cx="695.5" cy="92.5" r="34.5"></circle>
            <text id="2" font-family="Raleway-Bold, Raleway" font-size="36" font-weight="bold" letter-spacing="-0.186666697" fill="#FFFFFF">
                <tspan x="685" y="101">2</tspan>
            </text>
            <circle id="Oval-3" fill="#FFCC01" cx="1168.5" cy="91.5" r="34.5"></circle>
            <text id="3" font-family="Raleway-Bold, Raleway" font-size="34" font-weight="bold" letter-spacing="-0.176296324" fill="#FFFFFF">
                <tspan x="1158" y="97">3</tspan>
            </text>
        </g>
    </g>
</svg>