<svg height='100px' width='100px'  fill="#000000" xmlns="http://www.w3.org/2000/svg" xmlns:xlink="http://www.w3.org/1999/xlink" version="1.1" x="0px" y="0px" viewBox="0 0 100 100" style="enable-background:new 0 0 100 100;" xml:space="preserve"><path d="M42.1,32.7c5-12.1,2.6-20.1,2.4-20.4c-0.2-0.7-0.9-1.1-1.7-1c-0.4,0.1-9.8,1.8-17.9,14.9c-1.9,3-3.3,4.9-4.5,6.5  c-2.5,3.2-4.2,5.6-7,13.2l0,0.1c-1.9,5.3-3.7,10.2-2.1,18.9c0.1,0.8,0.9,1.4,1.7,1.2c0.8-0.1,1.4-0.9,1.2-1.7  c-1.4-7.9,0.2-12.3,2-17.4l0-0.1c2.6-7.2,4.2-9.3,6.6-12.4c1.3-1.7,2.8-3.6,4.7-6.8c5.6-9,11.7-12.1,14.4-13.1  c0.4,2.6,0.7,8.8-2.7,16.9c-2,4.9-2.1,6.8-2.1,8.8c0,2,0,4-2.4,10c-3,7.7-7.5,10.1-11.5,12.3c-1.3,0.7-2.5,1.4-3.6,2.2L39.3,23  c0.3-0.8,0-1.6-0.7-2c-0.8-0.4-1.6,0-2,0.7L8.9,81.2c-0.3,0.7,0,1.6,0.7,2c0.2,0.1,0.5,0.2,0.7,0.2c0.5,0,1-0.3,1.3-0.8  c2.9-5,7.9-13.5,9.2-14.7c1.1-1,2.5-1.8,4.1-2.6c4.2-2.3,9.4-5.2,12.8-13.9c2.5-6.4,2.5-8.9,2.6-11C40.2,38.6,40.3,37,42.1,32.7z"></path><path d="M53.2,72.9l12-38.6l1.9-6.2c0,0,0,0,0,0l1.4-4.4c0.8-2.7-0.2-5.4-2.4-6.1c0,0,0,0,0,0L60.5,16c-1.1-0.3-2.4-0.1-3.4,0.7  c-0.9,0.7-1.6,1.7-2,2.9l-1.4,4.4c0,0,0,0,0,0l-1.9,6.2l-12,38.6c0,0,0,0.1,0,0.1c0,0,0,0.1,0,0.1c0,0.1,0,0.2,0,0.3c0,0,0,0,0,0  l0,0c0,0,0,0,0,0L41,83.6c0.1,0.6,0.5,1.1,1,1.3c0.1,0,0.3,0.1,0.4,0.1c0.4,0,0.9-0.2,1.1-0.5l9.2-11c0,0,0,0,0,0c0,0,0,0,0,0  C53,73.3,53.1,73.2,53.2,72.9C53.2,73,53.2,73,53.2,72.9z M50.8,70.6l-7.7-2.4l11.1-35.7l7.7,2.4L50.8,70.6z M55.1,29.7l1-3.3  l7.7,2.4l-1,3.3L55.1,29.7z M57.9,20.5c0.2-0.6,0.5-1.1,0.9-1.4c0.3-0.2,0.5-0.3,0.7-0.2l5.6,1.7c0.4,0.1,0.8,1.1,0.4,2.3l-0.9,3  L57,23.5L57.9,20.5z M43.4,77.1l2,0.6l-1.7,2L43.4,77.1z M47.5,75.3l-4.4-1.4l-0.2-2.6l6.3,1.9L47.5,75.3z"></path><path d="M88.5,17.4c-1.7-0.5-4.2,0.4-9,11c-3.2,7.1-6.7,16.7-9.9,27.1l-0.3,1.2c0,0,0,0,0,0l-2.1,7c-0.4,1.4-0.3,2.9,0.3,4.2  c0.2,0.4,0.4,0.7,0.7,1c-0.3,0.1-0.5,0.2-0.7,0.4c-1.8,1-2.9,2.7-3.3,4.7c-0.7,3.3-3.2,4.9-4.8,5.9c-1,0.7-2,1.3-1.9,2.5  c0.2,1.2,1.4,1.5,1.7,1.7l0.4,0.1c1.6,0.5,4.6,1.4,7.8,1.4c1.9,0,3.9-0.3,5.6-1.3c2.3-1.3,4-3.4,4.9-6.3c0.6-1.9,0.4-4-0.4-5.7  c-0.1-0.2-0.2-0.4-0.3-0.5c1.7-0.5,3.2-1.9,3.8-3.9l2.1-7c0,0,0-0.1,0-0.1l0.3-1.1c3.1-10.4,5.5-20.4,6.7-28.1  C91.7,20,90.2,17.9,88.5,17.4z M74.9,77.1c-0.7,2.2-1.8,3.7-3.4,4.6c-2.9,1.6-7,0.8-9.6,0.1c1.9-1.3,4.3-3.4,5.1-7.1  c0.2-1.1,0.9-2.1,1.9-2.7c1-0.6,2.2-0.8,3.3-0.5c1,0.3,1.9,1.1,2.4,2.1C75.2,74.7,75.2,75.9,74.9,77.1z M75,68.9l-3.5-1  c-0.6-0.2-1-0.6-1.3-1.2c-0.3-0.6-0.4-1.4-0.1-2.1l0.7-2.4l8,2.4L78,67C77.6,68.4,76.2,69.2,75,68.9z M80.4,58.8L80.1,60  c0,0,0,0.1,0,0.1l-0.5,1.6l-8-2.4l0.5-1.7c0,0,0,0,0,0l0.4-1.2c6.2-20.9,12.6-33.9,15.1-35.9C88.5,23.5,86.7,37.9,80.4,58.8z"></path></svg>