<svg height='100px' width='100px'  fill="#000000" xmlns:x="http://ns.adobe.com/Extensibility/1.0/" xmlns:i="http://ns.adobe.com/AdobeIllustrator/10.0/" xmlns:graph="http://ns.adobe.com/Graphs/1.0/" xmlns="http://www.w3.org/2000/svg" xmlns:xlink="http://www.w3.org/1999/xlink" version="1.1" x="0px" y="0px" viewBox="0 0 100 100" style="enable-background:new 0 0 100 100;" xml:space="preserve"><g><g i:extraneous="self"><g><path d="M5273.1,2400.1v-2c0-2.8-5-4-9.7-4s-9.7,1.3-9.7,4v2c0,1.8,0.7,3.6,2,4.9l5,4.9c0.3,0.3,0.4,0.6,0.4,1v6.4     c0,0.4,0.2,0.7,0.6,0.8l2.9,0.9c0.5,0.1,1-0.2,1-0.8v-7.2c0-0.4,0.2-0.7,0.4-1l5.1-5C5272.4,2403.7,5273.1,2401.9,5273.1,2400.1z      M5263.4,2400c-4.8,0-7.4-1.3-7.5-1.8v0c0.1-0.5,2.7-1.8,7.5-1.8c4.8,0,7.3,1.3,7.5,1.8C5270.7,2398.7,5268.2,2400,5263.4,2400z"></path><path d="M5268.4,2410.3c-0.6,0-1,0.4-1,1c0,0.6,0.4,1,1,1h4.3c0.6,0,1-0.4,1-1c0-0.6-0.4-1-1-1H5268.4z"></path><path d="M5272.7,2413.7h-4.3c-0.6,0-1,0.4-1,1c0,0.6,0.4,1,1,1h4.3c0.6,0,1-0.4,1-1C5273.7,2414.1,5273.3,2413.7,5272.7,2413.7z"></path><path d="M5272.7,2417h-4.3c-0.6,0-1,0.4-1,1c0,0.6,0.4,1,1,1h4.3c0.6,0,1-0.4,1-1C5273.7,2417.5,5273.3,2417,5272.7,2417z"></path></g><g><path d="M83.2,35.8c-7.9,0-14.3,6.4-14.3,14.3c0,4.9,2.5,9.2,6.2,11.8L71.5,70l-13.6,0.5c0,0-7.1-11.9-11-18.4     c-5.4-8.8-19.5-18.3-30-9.2C6.5,52,3.3,74.6,2.5,90.6c-0.1,2.1,1.6,3.9,3.7,3.9H38c2,0,3.7-1.7,3.7-3.7l0-15.9l4.8,8     c0.8,1.4,2.1,2.5,3.5,3.2c1.1,0.5,2.4,0.8,3.7,0.8l21.8-0.8c4.5-0.1,8-3.9,7.8-8.4c-0.1-3.6-2.7-6.6-6-7.5l2.8-6.2     c1,0.2,2.1,0.4,3.3,0.4c7.9,0,14.3-6.4,14.3-14.3S91.1,35.8,83.2,35.8z M83.2,59.1c-4.9,0-8.9-4-8.9-8.9s4-8.9,8.9-8.9     c4.9,0,8.9,4,8.9,8.9S88.1,59.1,83.2,59.1z"></path><ellipse transform="matrix(0.4232 -0.906 0.906 0.4232 5.3106 54.7392)" cx="45.7" cy="23.2" rx="17.7" ry="17.7"></ellipse><path d="M85.7,44.5c-1.5-0.7-3.1-0.7-4.7-0.1c-1,0.4-1.5,1.5-1.1,2.6c0.4,1,1.5,1.5,2.6,1.1c0.5-0.2,1.1-0.2,1.6,0     s0.9,0.6,1.1,1.2c0.3,0.8,1.1,1.3,1.9,1.3c0.2,0,0.5,0,0.7-0.1c1-0.4,1.5-1.5,1.1-2.6C88.3,46.4,87.2,45.2,85.7,44.5z"></path></g></g></g></svg>