<svg id="Layer_1" data-name="Layer 1" xmlns="http://www.w3.org/2000/svg" viewBox="0 0 448.99 449.09"><title>ic-instagram</title><g id="io4Als.tif"><path d="M302,171.65c38.65,0,77.3-.24,116,0.06,53,0.41,100.93,43.62,107.39,96.29,2.1,17.1.87,34.28,0.92,51.41,0.19,63.64-.07,127.29.08,190.94,0.12,52.5-41.32,101.07-95.29,109-15.08,2.21-30.27,1-45.4,1-66.48.18-133,.33-199.43,0-29.33-.17-54.4-11.69-75.17-32.25-22-21.75-33.46-48.09-33.46-79.19q0-113.46.05-226.92c0-51.56,39-98.31,89.57-108.28,15.74-3.1,31.55-1.77,47.32-1.92,29.15-.29,58.31-0.08,87.47-0.08v0.05ZM110.34,395.89c0,36.33-.06,72.66.06,109a91.52,91.52,0,0,0,1.45,16.38c7.4,39.7,39.05,66.22,79.67,66.32q110,0.27,220,0c15.37,0,30.14-3.25,43.41-11.48,26.59-16.49,38.59-41.1,38.67-71.74,0.19-72.66.08-145.33,0-218a90.2,90.2,0,0,0-2.48-20.79c-8.1-34.08-37-60.88-78.4-61.11-73.83-.41-147.66-0.24-221.49,0-20.31.06-38.68,6.45-54,20.17-18.4,16.45-26.65,37.51-26.81,61.79C110.17,322.89,110.34,359.39,110.34,395.89Z" transform="translate(-77.62 -171.53)"/><path d="M414.34,396.38c1.58,58.7-50.6,114.65-116.76,112.18-58.31-2.18-108.32-52.32-108.23-113,0.09-60.93,52.47-113,114.05-112.26C363.9,284.08,416,336,414.34,396.38ZM302,316.37c-45.29,1.45-79.44,35.18-79.26,79.82s33.68,78.93,79.12,79.08c44.76,0.15,79.42-33.52,79.47-79.22S346.5,317.8,302,316.37Z" transform="translate(-77.62 -171.53)"/><path d="M430.3,235.62c17.58,0,31.49,14.23,32.2,31.41,0.74,17.67-15,34.29-33.8,33.47A32.64,32.64,0,0,1,397.62,268C397.67,249.63,411.84,235.61,430.3,235.62Z" transform="translate(-77.62 -171.53)"/></g></svg>