<?xml version="1.0" encoding="UTF-8"?>
<svg width="925px" height="661px" viewBox="0 0 925 661" version="1.1" xmlns="http://www.w3.org/2000/svg" xmlns:xlink="http://www.w3.org/1999/xlink">
    <!-- Generator: Sketch 48.2 (47327) - http://www.bohemiancoding.com/sketch -->
    <title>Group 2</title>
    <desc>Created with Sketch.</desc>
    <defs></defs>
    <g id="Desktop-HD" stroke="none" stroke-width="1" fill="none" fill-rule="evenodd" transform="translate(-233.000000, -77.000000)">
        <g id="Group-2" transform="translate(228.000000, 73.000000)" fill="#000000">
            <text id="Incremental-funding," font-family="JosefinSans, Josefin Sans" font-size="24" font-weight="normal" letter-spacing="-0.186666697">
                <tspan x="381.454667" y="631">Incremental funding,</tspan>
                <tspan x="400.056" y="660">audience growth</tspan>
            </text>
            <text id="Incomes" font-family="JosefinSans, Josefin Sans" font-size="24" font-weight="normal" letter-spacing="-0.186666697">
                <tspan x="429" y="102">Incomes</tspan>
            </text>
            <text id="Visibility" font-family="JosefinSans, Josefin Sans" font-size="24" font-weight="normal" letter-spacing="-0.186666697">
                <tspan x="426" y="67">Visibility</tspan>
            </text>
            <text id="Social,-innovative," font-family="JosefinSans, Josefin Sans" font-size="24" font-weight="normal" letter-spacing="-0.186666697">
                <tspan x="766.629334" y="346">Social, innovative, </tspan>
                <tspan x="796.929333" y="375">meaningful</tspan>
            </text>
            <text id="Economic-&amp;-social-we" font-family="JosefinSans, Josefin Sans" font-size="24" font-weight="normal" letter-spacing="-0.186666697">
                <tspan x="3.85866693" y="355">Economic &amp; social </tspan>
                <tspan x="41.9173335" y="384">well being</tspan>
            </text>
            <text id="A4H" font-family="JosefinSans-Bold, Josefin Sans" font-size="24" font-weight="bold" letter-spacing="-0.1866667">
                <tspan x="449" y="346">A4H</tspan>
            </text>
            <text id="ARTISTS" font-family="JosefinSans-Bold, Josefin Sans" font-size="24" font-weight="bold" letter-spacing="-0.1866667">
                <tspan x="418" y="23">ARTISTS</tspan>
            </text>
            <text id="ART-LOVERS" font-family="JosefinSans-Bold, Josefin Sans" font-size="24" font-weight="bold" letter-spacing="-0.1866667">
                <tspan x="772" y="306">ART LOVERS</tspan>
            </text>
            <text id="NON-PROFIT" font-family="JosefinSans-Bold, Josefin Sans" font-size="24" font-weight="bold" letter-spacing="-0.1866667">
                <tspan x="400" y="596">NON PROFIT</tspan>
            </text>
            <text id="GOVERNMENT" font-family="JosefinSans-Bold, Josefin Sans" font-size="24" font-weight="bold" letter-spacing="-0.1866667">
                <tspan x="6" y="311">GOVERNMENT</tspan>
            </text>
            <g id="noun_604184" transform="translate(264.000000, 157.000000)" fill-rule="nonzero">
                <path d="M52.213,0 L49.212,6.493 L63.997,13.322 C35.43,20.543 19.22,34.521 10.436,48.469 C1.109,63.232 0.006,77.649 0,83.838 C0,85.787 0.112,86.93 0.123,87.036 L7.24,86.312 L7.24,86.31 C7.24,86.31 7.239,86.301 7.23,86.205 C7.207,85.916 7.153,85.092 7.153,83.838 C7.147,78.491 8.153,65.437 16.481,52.294 C24.375,39.874 38.727,27.096 65.916,20.224 L59.324,34.808 L65.845,37.756 L77.606,11.729 L52.213,0 Z" id="Shape"></path>
            </g>
            <g id="noun_604184" transform="translate(626.000000, 198.000000) rotate(92.000000) translate(-626.000000, -198.000000) translate(587.000000, 154.000000)" fill-rule="nonzero">
                <path d="M52.213,0 L49.212,6.493 L63.997,13.322 C35.43,20.543 19.22,34.521 10.436,48.469 C1.109,63.232 0.006,77.649 0,83.838 C0,85.787 0.112,86.93 0.123,87.036 L7.24,86.312 L7.24,86.31 C7.24,86.31 7.239,86.301 7.23,86.205 C7.207,85.916 7.153,85.092 7.153,83.838 C7.147,78.491 8.153,65.437 16.481,52.294 C24.375,39.874 38.727,27.096 65.916,20.224 L59.324,34.808 L65.845,37.756 L77.606,11.729 L52.213,0 Z" id="Shape"></path>
            </g>
            <g id="noun_604184" transform="translate(641.000000, 487.000000) rotate(180.000000) translate(-641.000000, -487.000000) translate(602.000000, 443.000000)" fill-rule="nonzero">
                <path d="M52.213,0 L49.212,6.493 L63.997,13.322 C35.43,20.543 19.22,34.521 10.436,48.469 C1.109,63.232 0.006,77.649 0,83.838 C0,85.787 0.112,86.93 0.123,87.036 L7.24,86.312 L7.24,86.31 C7.24,86.31 7.239,86.301 7.23,86.205 C7.207,85.916 7.153,85.092 7.153,83.838 C7.147,78.491 8.153,65.437 16.481,52.294 C24.375,39.874 38.727,27.096 65.916,20.224 L59.324,34.808 L65.845,37.756 L77.606,11.729 L52.213,0 Z" id="Shape"></path>
            </g>
            <g id="noun_604184" transform="translate(311.000000, 487.000000) rotate(270.000000) translate(-311.000000, -487.000000) translate(272.000000, 443.000000)" fill-rule="nonzero">
                <path d="M52.213,0 L49.212,6.493 L63.997,13.322 C35.43,20.543 19.22,34.521 10.436,48.469 C1.109,63.232 0.006,77.649 0,83.838 C0,85.787 0.112,86.93 0.123,87.036 L7.24,86.312 L7.24,86.31 C7.24,86.31 7.239,86.301 7.23,86.205 C7.207,85.916 7.153,85.092 7.153,83.838 C7.147,78.491 8.153,65.437 16.481,52.294 C24.375,39.874 38.727,27.096 65.916,20.224 L59.324,34.808 L65.845,37.756 L77.606,11.729 L52.213,0 Z" id="Shape"></path>
            </g>
            <g id="noun_768733" transform="translate(431.000000, 123.000000)" fill-rule="nonzero">
                <path d="M58.2400176,0.034208929 C49.0484163,0.035135249 41.0724439,6.39066479 39.0000436,15.3652829 C36.7487974,5.5399447 27.4890197,-1.02010295 17.4958428,0.130729115 C7.50266599,1.28156118 -0.0310585391,9.77557851 9.62744207e-05,19.8565864 C9.62744207e-05,44.4924283 39.0000436,70 39.0000436,70 C39.0000436,70 77.9999909,44.4924283 77.9999909,19.8565864 C78.0050091,14.6011084 75.9253762,9.55915943 72.2191184,5.8411968 C68.5128605,2.12323417 63.4839662,0.0342065227 58.2400176,0.034208929 Z M60.9061958,35.6140499 C60.5091055,36.1067667 51.0073001,47.6477111 39.0000436,47.6477111 C26.9927871,47.6477111 17.4909817,36.1067667 17.0938914,35.6140499 C16.8122662,35.2661297 16.8122662,34.7680792 17.0938914,34.4201591 C17.4909817,33.9274422 26.9927871,22.3864978 39.0000436,22.3864978 C51.0073001,22.3864978 60.5091055,33.9274422 60.9061958,34.4201591 C61.187821,34.7680792 61.187821,35.2661297 60.9061958,35.6140499 Z" id="Shape"></path>
                <circle id="Oval" cx="38.5" cy="34.5" r="5.5"></circle>
            </g>
            <g id="Group" transform="translate(396.000000, 276.000000)" fill-rule="nonzero">
                <path d="M68.1741557,23.0219235 C62.4827028,24.4514139 57.3005703,27.4988806 53.1904359,31.8290522 C52.9317335,32.1009389 52.938201,32.5362913 53.2001372,32.801506 C53.3311053,32.9349473 53.497645,33 53.6658015,33 C53.8371919,33 54.011816,32.9266073 54.1411672,32.7914979 C58.0766775,28.6398041 63.038913,25.7274467 68.4894492,24.3580049 C68.8467819,24.264596 69.0650621,23.8942962 68.9826007,23.5239965 C68.8920548,23.1587008 68.5444235,22.9251785 68.1741557,23.0219235 Z" id="Shape"></path>
                <path d="M49.8441,35.2297942 C49.5876686,35.5290784 49.3452243,35.8310468 49.1058883,36.1410677 C48.9116221,36.3960632 48.9924368,36.7409782 49.2846133,36.9060543 C49.3949565,36.9704742 49.5161786,37 49.640509,37 C49.8472083,37 50.0492452,36.9141068 50.1735756,36.754399 C50.3989244,36.4591411 50.6351522,36.1652251 50.8760423,35.8793617 C51.0858499,35.6337608 51.0221305,35.2861616 50.7392789,35.1063226 C50.4595355,34.9251416 50.0554617,34.981509 49.8441,35.2297942 Z" id="Shape"></path>
                <path d="M74.824,7 C75.28,7 75.646,6.68454568 75.646,6.29537105 L75.646,0.706343375 C75.646,0.317168748 75.278,0 74.824,0 C74.372,0 74,0.317168748 74,0.706343375 L74,6.29537105 C74.002,6.6862601 74.372,7 74.824,7 Z" id="Shape"></path>
                <path d="M53.5731012,10.6190344 C53.696539,10.8587252 53.9688284,11 54.2520093,11 C54.353664,11 54.464395,10.9809517 54.5660497,10.9365057 C54.941809,10.7841195 55.1051826,10.3968044 54.9291021,10.0698089 L52.4258554,5.37758218 C52.2534055,5.05217403 51.8032204,4.90931192 51.4310916,5.06011082 C51.0589629,5.21567178 50.8955892,5.60139949 51.0698544,5.92680763 L53.5731012,10.6190344 Z" id="Shape"></path>
                <path d="M36.9795447,24.8338531 C37.0969397,24.9469015 37.2369107,25 37.3798918,25 C37.5559843,25 37.7305718,24.9160701 37.8554921,24.7499233 C38.0752315,24.4501738 38.040615,24.0048317 37.7772288,23.754755 L34.0205884,20.1646126 C33.7587072,19.9162487 33.3704007,19.9522187 33.1461461,20.2502553 C32.9249016,20.5500048 32.9595181,20.993634 33.2183892,21.2437107 L36.9795447,24.8338531 Z" id="Shape"></path>
                <path d="M22.5425346,42.4534473 L28.090248,43.9765947 C28.1501281,43.9891975 28.2135305,44 28.276933,44 C28.5957063,44 28.8898232,43.7803499 28.9743598,43.4472739 C29.0800305,43.052984 28.8493161,42.6478916 28.4618567,42.5416674 L22.9123822,41.0257216 C22.5354899,40.9194974 22.1304188,41.1517504 22.0229869,41.5478407 C21.9243608,41.943931 22.1515529,42.3508239 22.5425346,42.4534473 Z" id="Shape"></path>
                <path d="M21.7120727,65 C21.7537086,65 21.7936097,64.9956991 21.8352457,64.9899646 L27.4075197,64.1770995 C27.8013261,64.1240554 28.0580809,63.8172598 27.9886877,63.4961279 C27.9175597,63.174996 27.5584499,62.9413152 27.1629086,63.0129965 L21.5923695,63.8287288 C21.2020327,63.8832065 20.9418082,64.1885685 21.0112014,64.5125677 C21.0719204,64.8007262 21.3737809,65 21.7120727,65 Z" id="Shape"></path>
                <path d="M94.7508689,11 C95.0307247,11 95.3051286,10.8602907 95.4250668,10.6189748 L97.9274129,5.92601404 C98.1073202,5.60055499 97.9401337,5.21317934 97.5657812,5.05918165 C97.1968805,4.90994677 96.748021,5.05283123 96.5717483,5.37670267 L94.0694021,10.0696634 C93.8967639,10.3967101 94.0566814,10.7840857 94.4328511,10.9364958 C94.5364341,10.9809487 94.640017,11 94.7508689,11 Z" id="Shape"></path>
                <path d="M111.618426,25 C111.759779,25 111.901132,24.9469556 112.016921,24.8340224 L115.77781,21.2441162 C116.04247,20.9942943 116.074049,20.5511172 115.854501,20.2550953 C115.63796,19.9522291 115.239466,19.9145847 114.982324,20.1661177 L111.224443,23.7526017 C110.958279,24.0024236 110.925196,24.4473119 111.144744,24.7433337 C111.265044,24.9161557 111.443991,25 111.618426,25 Z" id="Shape"></path>
                <path d="M121.728598,44 C121.786712,44 121.85187,43.989202 121.911745,43.9766044 L127.462507,42.4540878 C127.849934,42.3515069 128.078867,41.9447826 127.974967,41.5488563 C127.871066,41.15293 127.469552,40.9171739 127.085647,41.0269535 L121.540168,42.5422714 C121.152742,42.6484516 120.922047,43.0533762 121.024187,43.4475029 C121.110477,43.7804409 121.408091,44 121.728598,44 Z" id="Shape"></path>
                <path d="M121.011707,63.4955219 C120.940601,63.815349 121.200744,64.1237025 121.592693,64.1767679 L127.161492,64.9899606 C127.203115,64.9956974 127.248206,65 127.28636,65 C127.624546,65 127.928047,64.7992117 127.988747,64.5123712 C128.058118,64.1882416 127.79971,63.8827565 127.407761,63.8282568 L121.838962,63.0121957 C121.426202,62.943354 121.084547,63.1742606 121.011707,63.4955219 Z" id="Shape"></path>
                <path d="M135.335233,77.5432151 C135.335233,77.5432151 148.877037,73.5864083 150,62.050947 C142.236982,66.6628214 125.768517,70.7796825 114.447794,73.7497627 C111.976613,74.4015303 109.919504,75.2546033 108.17709,76.24298 C112.713661,69.5982507 115.13184,61.8958428 115.13184,53.866726 C115.13184,31.8881328 97.1809991,14 75.1192527,14 C53.0475686,14 35.0967272,31.8881328 35.0967272,53.866726 C35.0967272,62.0047457 37.5745329,69.8127565 42.2021995,76.4525357 C40.3835961,75.3783567 38.2006095,74.4444315 35.5538625,73.7497627 C24.233139,70.7796825 7.76136213,66.6628214 0,62.050947 C1.1179939,73.5847583 14.6631112,77.5432151 14.6631112,77.5432151 C14.6631112,77.5432151 6.65330595,78.3319364 1.44593878,76.4162347 C4.28812773,82.7837566 10.3948589,86.1663479 19.9930436,85.8412891 C13.208891,88.5110611 8.34768782,88.5110611 8.34768782,88.5110611 C8.34768782,88.5110611 11.2842851,96.027014 26.3299987,92.1180585 C23.3420564,94.8736329 18.8982377,96.3916738 16.7997217,96.9460888 C18.456009,98.1671218 27.1697363,102.516639 39.310322,96.3157718 C44.3272161,93.3935429 50.2467868,89.6330914 50.2467868,89.6330914 C50.2418179,89.5027379 50.2285676,89.3624841 50.2153173,89.2255304 L58.8412614,103.005052 L58.8197297,103.005052 C58.8197297,103.506666 58.6408507,103.709621 58.1257453,104.222785 C57.5327945,104.816801 56.6350868,105.712775 56.6350868,107.36612 C56.6350868,109.016165 57.5327945,109.910489 58.1257453,110.507805 C58.642507,111.020969 58.8197297,111.222274 58.8197297,111.720588 C58.8197297,112.225501 58.6408507,112.423507 58.1257453,112.939971 C57.5327945,113.529036 56.6350868,114.42171 56.6350868,116.075055 C56.6350868,117.72675 57.5327945,118.617774 58.1257453,119.21509 C58.642507,119.726604 58.8197297,119.927909 58.8197297,120.429523 C58.8197297,123.427654 60.032132,127 65.8125745,127 L84.409368,127 C90.1914668,127 91.4055254,123.427654 91.4055254,120.429523 C91.4055254,119.926259 91.5794355,119.724954 92.0978535,119.21509 C92.6941169,118.617774 93.5918246,117.72675 93.5918246,116.075055 C93.5918246,114.42171 92.6924606,113.529036 92.0978535,112.939971 C91.5810918,112.423507 91.4055254,112.220551 91.4055254,111.720588 C91.4055254,111.220624 91.5794355,111.019319 92.0978535,110.507805 C92.6941169,109.913789 93.5918246,109.016165 93.5918246,107.36612 C93.5918246,105.706175 92.6941169,104.816801 92.0995097,104.222785 C91.5810918,103.707971 91.4055254,103.505016 91.4055254,103.005052 L91.3889625,103.005052 L99.7598383,89.6363915 C99.8227773,89.6776426 105.697628,93.4083933 110.686365,96.3157718 C122.826951,102.516639 131.540678,98.1671218 133.193653,96.9460888 C131.103419,96.3916738 126.654631,94.8736329 123.665032,92.1180585 C138.717371,96.027014 141.647343,88.5110611 141.647343,88.5110611 C141.647343,88.5110611 136.789453,88.5110611 130.000331,85.8412891 C139.603485,86.1663479 145.710216,82.7837566 148.554061,76.4162347 C143.343381,78.3302863 135.335233,77.5432151 135.335233,77.5432151 Z M84.4110242,124.284027 L65.8142308,124.284027 C63.2701736,124.284027 62.0263018,123.528306 61.6735127,121.691807 L88.5567113,121.691807 C88.2022658,123.528306 86.9567378,124.284027 84.4110242,124.284027 Z M90.1715914,117.291138 C89.7856764,117.672298 89.2954154,118.210213 88.9790645,118.972533 L61.2461905,118.972533 C60.9348085,118.210213 60.4428912,117.673948 60.0586326,117.291138 C59.5418709,116.777974 59.3663045,116.578319 59.3663045,116.076705 C59.3663045,115.578392 59.5435272,115.377086 60.0586326,114.858972 C60.4279846,114.494312 60.8967139,113.974548 61.2130648,113.260079 L89.0121903,113.260079 C89.3285411,113.974548 89.800583,114.494312 90.1715914,114.858972 C90.6866967,115.377086 90.8639194,115.580042 90.8639194,116.076705 C90.8639194,116.579969 90.6866967,116.779624 90.1715914,117.291138 Z M90.1666225,108.585503 C89.7376441,109.016165 89.1513184,109.611831 88.8614681,110.542456 L61.3654432,110.542456 C61.0739367,109.616781 60.4892673,109.016165 60.0602889,108.585503 C59.5435272,108.069039 59.3663045,107.867734 59.3663045,107.36612 C59.3663045,106.861206 59.5435272,106.654951 60.0586326,106.146737 C60.5074864,105.697925 61.1269379,105.075858 61.4035378,104.084181 L88.8233735,104.084181 C89.0999735,105.075858 89.7177686,105.696275 90.1666225,106.146737 C90.6850404,106.659901 90.8639194,106.862856 90.8639194,107.36612 C90.8639194,107.864434 90.6866967,108.069039 90.1666225,108.585503 Z M63,103 C58.4369286,96.6506286 37.822976,61.6351357 37.822976,53.865076 C37.822976,33.3830732 54.5564463,16.7192734 75.1192527,16.7192734 C95.6754339,16.7192734 112.402279,33.3830732 112.402279,53.865076 C112.402279,61.5905845 93.5581026,96.6110276 89,103 L63,103 Z M74.9983437,59.5791802 C75.587982,60.7061607 75.9888035,62.273703 75.6260766,62.9023699 C75.5730754,62.978272 75.4471976,63.1614269 75.0016563,63.1878276 C74.579303,63.1597769 74.4468001,62.9881722 74.4020803,62.90567 C74.0376971,62.2506023 74.4600504,60.6203583 74.9983437,59.5791802 Z" id="Shape"></path>
            </g>
            <g id="noun_1178109" transform="translate(615.000000, 315.000000)">
                <path d="M40.0899112,17.3055196 C41.8638011,15.5400832 40.0899112,9.89068702 34.4134636,12.0092106 C36.8969094,8.83142523 31.5752398,5.3005526 29.091794,8.1252507 C30.1561279,5.3005526 25.1892362,2.12276723 20.9319005,5.65363986 C10.6433393,12.7153851 4.2573357,24.7203521 0,31.4290101 L18.0936767,49.4364605 C23.7701243,46.9648497 38.3160213,51.9080714 42.218579,56.1451185 C47.8950267,63.9130383 48.9593606,53.6735077 46.4759148,50.8488096 C37.6064654,41.6685407 31.5752398,36.725319 49.3141386,19.0709559 L61.0218117,7.77216344 C65.9887034,2.47585449 60.6670338,-3.17354173 55.3453641,2.12276723 C50.0236945,7.06598891 45.0568029,12.3622979 40.0899112,17.3055196 Z" id="Shape"></path>
                <path d="M74.1835537,41.881654 C72.4060338,43.6271772 73.8280497,49.2128514 79.5161135,47.1182236 C77.0275856,50.2601653 82.3601453,53.7512118 84.8486732,51.3074793 C83.7821613,54.1003164 88.7592171,56.8931535 93.0252649,53.4021071 C103.690384,46.4200143 109.733952,34.5504565 114,27.9174683 L96.2248008,10.4622363 C90.181233,12.5568641 75.6055696,7.66939915 72.0505298,3.8292481 C66.006962,-3.851054 64.9404501,6.27298059 67.428978,8.71671308 C76.6720816,17.7934337 82.3601453,23.0300034 64.5849461,40.4852354 L53.2088186,51.6565839 C47.8762588,56.5440489 53.2088186,62.1297231 58.5413784,56.8931535 C63.8739381,52.0056886 68.8509939,46.7691189 74.1835537,41.881654 Z" id="Shape"></path>
            </g>
            <g id="noun_949180" transform="translate(435.000000, 493.000000)" fill-rule="nonzero">
                <path d="M47.37,37.33 C47.2600264,36.3887055 46.9423794,35.4835823 46.44,34.68 C45.8070181,33.6768718 44.9769089,32.8127417 44,32.14 C42.5690968,31.1734339 40.9724937,30.4785217 39.29,30.09 L38.19,29.8 L37.19,29.55 L37.19,22.23 C38.1252314,22.2295924 39.0093008,22.6568927 39.59,23.39 C40.2433128,24.1799796 40.5973768,25.1748995 40.59,26.2 L46.46,26.2 C46.4180288,24.9102964 46.1081258,23.64344 45.55,22.48 C45.0684498,21.4768574 44.3880059,20.5820737 43.55,19.85 C42.6972323,19.1285532 41.7217191,18.5662782 40.67,18.19 C39.5443314,17.779678 38.3720006,17.5109488 37.18,17.39 L37.18,14.2 L34.73,14.2 L34.73,17.39 C33.5062531,17.4663452 32.2985467,17.7085593 31.14,18.11 C30.0232472,18.4885363 28.9834488,19.0643205 28.07,19.81 C26.1545723,21.3872386 25.0735191,23.7596522 25.14,26.24 C25.0992827,27.4322265 25.3390495,28.6173594 25.84,29.7 C26.2949012,30.592338 26.9360017,31.3766631 27.72,32 C28.527738,32.6315328 29.4284128,33.1341566 30.39,33.49 C31.39,33.86 32.39,34.19 33.39,34.49 C33.67,34.55 33.92,34.61 34.16,34.68 C34.347007,34.7321523 34.5306778,34.7956022 34.71,34.87 L34.71,43.51 C33.4920989,43.2887234 32.3774059,42.6823024 31.53,41.78 C30.6261544,40.738369 30.1856368,39.3734867 30.31,38 L24.47,38 C24.75,41.26 25.75,43.73 27.47,45.41 C29.4656649,47.1939286 32.0338013,48.2048663 34.71,48.26 L34.71,51.78 L37.16,51.78 L37.16,48.29 C38.9306444,48.2154444 40.6668521,47.776286 42.26,47 C43.4523518,46.4142253 44.5268725,45.6142667 45.43,44.64 C46.6835868,43.2649652 47.4221268,41.498123 47.52,39.64 C47.5121474,38.8678413 47.4620726,38.0966899 47.37,37.33 Z M34.73,29 C33.6995289,28.8273466 32.7236154,28.4164357 31.88,27.8 C31.2717726,27.2609515 30.9469267,26.4709852 31,25.66 C30.9860066,25.1395395 31.0920821,24.6228495 31.31,24.15 C31.5072464,23.7326928 31.7981253,23.3665276 32.16,23.08 C32.5159743,22.7904094 32.9229717,22.5699525 33.36,22.43 C33.80142,22.2985651 34.2594294,22.2312108 34.72,22.23 L34.73,29 Z M41.23,41.19 C40.9726997,41.6534631 40.6339481,42.06674 40.23,42.41 C39.7928082,42.7430147 39.3026067,42.9999479 38.78,43.17 C38.2776517,43.3428732 37.7578897,43.4602388 37.23,43.52 L37.23,35.55 C38.4435897,35.8178583 39.5966161,36.3095902 40.63,37 C41.3306135,37.6007244 41.7021885,38.4999359 41.63,39.42 C41.6540492,40.0252768 41.5159545,40.6259885 41.23,41.16 L41.23,41.19 Z" id="Shape"></path>
                <path d="M69.52,49.3 L62.67,50.87 C62.5206397,50.8895919 62.3693603,50.8895919 62.22,50.87 C61.8455497,50.8712016 61.4782825,50.7672581 61.16,50.57 C60.7127182,50.2862985 60.3962397,49.8367552 60.28,49.32 L58.71,42.47 C58.5492305,41.7733321 58.7723412,41.0438149 59.2952886,40.5562505 C59.8182359,40.068686 60.5615717,39.897147 61.2452886,40.1062505 C61.9290054,40.3153539 62.4492305,40.8733321 62.61,41.57 L63.01,43.3 C67.3716217,31.8141944 63.9917331,18.826237 54.5845857,10.9235125 C45.1774384,3.02078807 31.8011245,1.93225167 21.24,8.21 L19.19,4.78 C31.421138,-2.51278317 46.956689,-1.10313053 57.6754215,8.27205998 C68.394154,17.6472505 71.8595222,32.8568425 66.26,45.95 L68.63,45.41 C69.3454182,45.1935425 70.1218317,45.394074 70.6429499,45.9299031 C71.1640681,46.4657323 71.3429132,47.2474262 71.1066284,47.9565429 C70.8703436,48.6656597 70.2583663,49.1838436 69.52,49.3 Z" id="Shape"></path>
                <path d="M52.62,61.39 C40.3589789,68.5477223 24.888508,67.0272469 14.2555862,57.6194522 C3.62266439,48.2116576 0.229074637,33.0415928 5.84,20 L3.36,20.57 C2.28304476,20.8157667 1.21076677,20.1419552 0.965000065,19.065 C0.719233357,17.9880447 1.39304477,16.9157667 2.47,16.67 L9.32,15.1 C9.83657128,14.9798238 10.3797245,15.0697498 10.83,15.35 C11.2773023,15.6357371 11.5963427,16.0838276 11.72,16.6 L13.29,23.46 C13.5324313,24.5368562 12.8566193,25.6065189 11.78,25.85 C11.6306397,25.8695919 11.4793603,25.8695919 11.33,25.85 C10.402058,25.8459532 9.59878011,25.204159 9.39,24.3 L9,22.79 C4.66485223,34.2383538 8.01844633,47.1761015 17.3691035,55.0769572 C26.7197606,62.9778129 40.0357554,64.1250665 50.6,57.94 L52.62,61.39 Z" id="Shape"></path>
            </g>
            <g id="noun_164971" transform="translate(192.000000, 318.000000)" fill-rule="nonzero">
                <path d="M20.722,0.052 C11.344,0.306 1.6,6.791 0.502,17.749 C-0.314,25.791 0.671,34.087 5.825,41.959 C10.95,49.831 20.047,57.136 35.056,63.762 C35.647,64.017 36.352,64.017 36.971,63.762 C51.954,57.137 61.05,49.832 66.203,41.96 C71.329,34.088 72.314,25.791 71.498,17.75 C70.54,8.009 62.655,1.751 54.404,0.364 C47.617,-0.797 40.21,1.44 36.013,7.415 C32.438,2.289 26.523,-0.089 20.722,0.052 Z M20.834,4.837 C26.523,4.667 31.676,7.159 33.76,13.303 C34.07,14.238 35.028,14.917 36.013,14.917 C36.971,14.917 37.929,14.237 38.239,13.303 C40.633,6.281 47.082,3.959 53.587,5.063 C60.093,6.196 66.034,10.839 66.767,18.23 C67.162,22.364 67.077,26.356 66.148,30.293 L50.236,30.293 L45.983,20.552 C45.588,19.674 44.631,19.079 43.673,19.108 C42.716,19.165 41.843,19.844 41.533,20.751 L36.211,36.58 L31.142,18.457 C30.861,17.466 29.875,16.702 28.833,16.702 C27.875,16.702 26.918,17.382 26.608,18.316 L22.412,30.294 L5.853,30.294 C4.924,26.358 4.839,22.365 5.233,18.231 C6.078,9.906 13.541,5.007 20.834,4.837 Z M28.579,27.037 L33.704,45.329 C33.986,46.292 34.915,47.028 35.929,47.057 C36.943,47.086 37.929,46.406 38.239,45.443 L44.096,28.085 L46.546,33.664 C46.912,34.514 47.814,35.108 48.742,35.08 L64.513,35.08 C63.866,36.524 63.105,37.912 62.203,39.327 C57.839,46.01 49.812,52.636 35.985,58.893 C22.187,52.635 14.16,46.009 9.824,39.326 C8.894,37.911 8.134,36.523 7.514,35.079 L24.101,35.079 C25.059,35.079 26.016,34.428 26.326,33.493 L28.579,27.037 Z" id="Shape"></path>
            </g>
        </g>
    </g>
</svg>